<svg xmlns="http://www.w3.org/2000/svg" viewBox="86 62 534 944"><path fill="#F6F5EB" d="M659.67,369.42V248.87H579.45A111.89,111.89,0,0,0,545.83,254c-28.48,8.95-46.6,36.88-46.6,36.88h0s-18.06-27.91-46.6-36.88A112,112,0,0,0,419,248.87H338.78V488.69H419a111.69,111.69,0,0,1,33.63,5.08c28.54,9,46.6,35,46.6,35h0s15.93-22.92,41.38-33.16q-.2-3.45-.2-6.94A119.4,119.4,0,0,1,659.67,369.42Z"></path><path fill="#F6F5EB" d="M630.44,488.69h29.23V459.26A29.36,29.36,0,0,0,630.44,488.69Z"></path><path fill="#F6F5EB" d="M593.31,488.69h21.35a45.16,45.16,0,0,1,45-45.21V422.33A66.44,66.44,0,0,0,593.31,488.69Z"></path><path fill="#F6F5EB" d="M556.19,488.69c0,.8,0,1.59,0,2.39a112.11,112.11,0,0,1,21.31-2.35v0a82.24,82.24,0,0,1,82.14-82.14V385.2A103.6,103.6,0,0,0,556.19,488.69Z"></path></svg>