<svg id="Camada_1" data-name="Camada 1" xmlns="http://www.w3.org/2000/svg" viewBox="0 0 1000 1000"><defs><style>.cls-1{fill:#0a0703;}</style></defs><path class="cls-1" d="M900,451.61V151.07H700a278.79,278.79,0,0,0-83.83,12.66c-71,22.3-116.17,92-116.17,92h0s-45-69.59-116.17-92A278.79,278.79,0,0,0,300,151.07H100V749H300a279.12,279.12,0,0,1,83.83,12.65C455,784,500,848.93,500,848.93h0s39.71-57.16,103.18-82.68c-.33-5.73-.52-11.49-.52-17.31C602.66,585,736.05,451.61,900,451.61Z"/><path class="cls-1" d="M827.11,748.94H900V675.57C859.81,675.57,827.11,708.49,827.11,748.94Z"/><path class="cls-1" d="M734.56,748.94h53.22c0-62.14,50.34-112.71,112.22-112.71V583.5C808.77,583.5,734.56,657.72,734.56,748.94Z"/><path class="cls-1" d="M642,748.94q0,3,.08,6A281.75,281.75,0,0,1,695.22,749v-.1C695.22,636,787.08,544.16,900,544.16V490.94C757.74,490.94,642,606.68,642,748.94Z"/></svg>