<svg id="Camada_1" data-name="Camada 1" xmlns="http://www.w3.org/2000/svg" viewBox="92 414 814 170"><defs></defs><path fill="#F6F5EB" d="M275.32,489.4V423.53H231.49a61,61,0,0,0-18.37,2.78c-15.56,4.88-25.46,20.15-25.46,20.15h0s-9.86-15.25-25.46-20.15a61,61,0,0,0-18.37-2.78H100v131h43.83a61.32,61.32,0,0,1,18.37,2.77c15.6,4.9,25.46,19.14,25.46,19.14h0s8.7-12.53,22.61-18.12c-.07-1.25-.11-2.52-.11-3.79A65.23,65.23,0,0,1,275.32,489.4Z"></path><path fill="#F6F5EB" d="M259.35,554.56h16V538.48A16,16,0,0,0,259.35,554.56Z"></path><path fill="#F6F5EB" d="M239.06,554.56h11.67a24.67,24.67,0,0,1,24.59-24.7V518.3A36.31,36.31,0,0,0,239.06,554.56Z"></path><path fill="#F6F5EB" d="M218.78,554.56c0,.43,0,.87,0,1.3a62.37,62.37,0,0,1,11.64-1.28v0a44.93,44.93,0,0,1,44.88-44.88V498A56.6,56.6,0,0,0,218.78,554.56Z"></path><path fill="#F6F5EB" d="M456.14,460.22a44.6,44.6,0,0,1,20.35,4.43,31.86,31.86,0,0,1,13.77,13.46q5,9,5,22.87v54H478.17v-52.1q0-13.65-6.66-20.56t-18.75-6.91A33.58,33.58,0,0,0,437,479a24.37,24.37,0,0,0-10.4,10.46q-3.65,6.9-3.64,17.19V555H405.85V423.53h17.06v62.92l-3.38-6.74a32.63,32.63,0,0,1,14.22-14.35Q443.35,460.22,456.14,460.22Z"></path><path fill="#F6F5EB" d="M731,460.22a43.63,43.63,0,0,1,20.08,4.43,31.47,31.47,0,0,1,13.59,13.46q4.89,9,4.89,22.87v54H752.53v-52.1q0-13.65-6.4-20.56t-17.94-6.91A30.33,30.33,0,0,0,713.26,479a23.85,23.85,0,0,0-9.86,10.46q-3.46,6.9-3.47,17.19V555H682.87v-52.1q0-13.65-6.3-20.56t-18-6.91A30,30,0,0,0,643.78,479a24.39,24.39,0,0,0-9.95,10.46q-3.55,6.9-3.55,17.19V555H613.22V461.1h16.35v25l-2.67-6.38a32,32,0,0,1,13.68-14.35,43.48,43.48,0,0,1,21.5-5.14q13.51,0,23.28,6.64T698.16,487l-6.93-2.84a35.28,35.28,0,0,1,14.92-17.37Q716.82,460.22,731,460.22Z"></path><path fill="#F6F5EB" d="M354.93,556.09a76.73,76.73,0,0,1-22.3-3.19q-10.58-3.18-16.61-7.79l7.11-13.47a58.14,58.14,0,0,0,14.92,6.91,59.34,59.34,0,0,0,18.13,2.83q11.9,0,17.15-3.36a10.61,10.61,0,0,0,5.24-9.4,8.27,8.27,0,0,0-3.2-6.91,22,22,0,0,0-8.44-3.72c-3.5-.83-7.38-1.56-11.64-2.22s-8.53-1.47-12.79-2.48A50.75,50.75,0,0,1,330.77,509a22.05,22.05,0,0,1-8.53-7.62q-3.19-4.87-3.2-13a24.05,24.05,0,0,1,4.8-14.88,30.35,30.35,0,0,1,13.59-9.84,57.11,57.11,0,0,1,20.88-3.46,82.29,82.29,0,0,1,18.75,2.22,46.74,46.74,0,0,1,15.55,6.29l-7.29,13.47A40.53,40.53,0,0,0,372,476.34a61.8,61.8,0,0,0-13.86-1.59q-11.19,0-16.7,3.63t-5.51,9.3a8.8,8.8,0,0,0,3.29,7.36,23.9,23.9,0,0,0,8.53,4,106.61,106.61,0,0,0,11.64,2.39q6.39,1,12.79,2.48a51.9,51.9,0,0,1,11.64,4.17,22.55,22.55,0,0,1,8.53,7.44q3.29,4.79,3.29,12.76a22.79,22.79,0,0,1-5,14.71q-5,6.21-14,9.66T354.93,556.09Z"></path><path fill="#F6F5EB" d="M814.38,556.09A44.63,44.63,0,0,1,796,552.55a28.12,28.12,0,0,1-12.17-9.84,24.84,24.84,0,0,1-4.26-14.26,26.81,26.81,0,0,1,3.64-13.83q3.64-6.19,11.9-9.92T817.4,501h29.86v12.23H818.12q-12.79,0-17.24,4.25a13.7,13.7,0,0,0-4.44,10.28A13.19,13.19,0,0,0,802,538.82q5.5,4.15,15.28,4.16A32.45,32.45,0,0,0,834,538.73a24.19,24.19,0,0,0,10.39-12.41l3.38,11.7a26.48,26.48,0,0,1-11.91,13.2Q827.36,556.1,814.38,556.09ZM845.3,555V535.18l-.89-3.72V497.61q0-10.8-6.3-16.75t-18.93-5.93a50,50,0,0,0-16.35,2.74,42.12,42.12,0,0,0-13.5,7.36l-7.11-12.76a51.57,51.57,0,0,1,17.5-8.95,73.29,73.29,0,0,1,21.42-3.1q19.36,0,29.85,9.39t10.48,28.71V555Z"></path><path fill="#F6F5EB" d="M865,513.33c-2.48,0-4.66-.09-6.39-.17-.76,0-1.42-.07-2-.08H823.5V501h33.3l2.35.09c7.13.31,23.86,1.05,31.12-8.81l9.73,7.16C891,511.61,875.44,513.33,865,513.33Z"></path><path fill="#F6F5EB" d="M593.49,529.87a33.33,33.33,0,0,1-12,8.5,39.3,39.3,0,0,1-15.19,2.84,38.24,38.24,0,0,1-17.95-4.08,29.83,29.83,0,0,1-12.17-11.43,30.56,30.56,0,0,1-3.8-10.37h29.16q14,0,22.31-3.72t11.9-9.92a26.81,26.81,0,0,0,3.64-13.83,24.84,24.84,0,0,0-4.26-14.26A28.12,28.12,0,0,0,583,463.76a44.63,44.63,0,0,0-18.39-3.54c-.43,0-.84,0-1.26,0s-.61,0-.92,0a48.18,48.18,0,0,0-24.26,6.11,44.32,44.32,0,0,0-16.88,16.92,49.51,49.51,0,0,0-6.13,24.82,48.38,48.38,0,0,0,6.31,24.81,44.67,44.67,0,0,0,17.77,17q11.46,6.21,26.57,6.2A55.68,55.68,0,0,0,587,552.2a41.23,41.23,0,0,0,15.9-11.35Zm-11-41.3c0,9.35-6.89,14.53-21.68,14.53H532a32.75,32.75,0,0,1,3.75-13.38,28.06,28.06,0,0,1,10.84-11.16,30.92,30.92,0,0,1,15.16-3.95C574.73,474.39,582.51,480.66,582.51,488.57Z"></path><path fill="#F6F5EB" d="M489.9,523.72l-9.73-7.16c11.09-15,32.32-14.12,41.39-13.72.75,0,1.41.07,2,.08L523.23,515l-2.21-.09C513.89,514.59,497.16,513.86,489.9,523.72Z"></path></svg>