<svg id="Camada_1" data-name="Camada 1" xmlns="http://www.w3.org/2000/svg" viewBox="92 468 814 168"><defs></defs><path fill="#3F3E20" d="M275.32,542.26V476.4H231.49a61.32,61.32,0,0,0-18.37,2.77c-15.56,4.89-25.46,20.15-25.46,20.15h0s-9.86-15.25-25.46-20.15a61.32,61.32,0,0,0-18.37-2.77H100v131h43.83a61,61,0,0,1,18.37,2.78c15.6,4.9,25.46,19.13,25.46,19.13h0s8.7-12.52,22.61-18.11c-.07-1.26-.11-2.52-.11-3.8A65.23,65.23,0,0,1,275.32,542.26Z"></path><path fill="#3F3E20" d="M259.35,607.42h16V591.34A16,16,0,0,0,259.35,607.42Z"></path><path fill="#3F3E20" d="M239.06,607.42h11.67a24.67,24.67,0,0,1,24.59-24.7V571.16A36.31,36.31,0,0,0,239.06,607.42Z"></path><path fill="#3F3E20" d="M218.78,607.42c0,.44,0,.87,0,1.31a61.52,61.52,0,0,1,11.64-1.29v0a44.94,44.94,0,0,1,44.88-44.88V550.88A56.6,56.6,0,0,0,218.78,607.42Z"></path><path fill="#3F3E20" d="M456.14,513.08a44.73,44.73,0,0,1,20.35,4.43A31.89,31.89,0,0,1,490.26,531q5,9,5,22.86v54H478.17v-52.1q0-13.65-6.66-20.56t-18.75-6.91A33.46,33.46,0,0,0,437,531.87a24.29,24.29,0,0,0-10.4,10.45q-3.65,6.91-3.64,17.19v48.38H405.85V476.39h17.06v62.92l-3.38-6.74a32.68,32.68,0,0,1,14.22-14.35Q443.35,513.07,456.14,513.08Z"></path><path fill="#3F3E20" d="M731,513.08a43.75,43.75,0,0,1,20.08,4.43A31.49,31.49,0,0,1,764.7,531q4.89,9,4.89,22.86v54H752.53v-52.1q0-13.65-6.4-20.56t-17.94-6.91a30.22,30.22,0,0,0-14.93,3.55,23.78,23.78,0,0,0-9.86,10.45q-3.46,6.91-3.47,17.19v48.38H682.87v-52.1q0-13.65-6.3-20.56t-18-6.91a29.87,29.87,0,0,0-14.75,3.55,24.31,24.31,0,0,0-9.95,10.45q-3.55,6.91-3.55,17.19v48.38H613.22V514h16.35v25l-2.67-6.38a32.08,32.08,0,0,1,13.68-14.35,43.48,43.48,0,0,1,21.5-5.14q13.51,0,23.28,6.65t12.8,20.11L691.23,537a35.28,35.28,0,0,1,14.92-17.37Q716.82,513.09,731,513.08Z"></path><path fill="#3F3E20" d="M354.93,609a77.07,77.07,0,0,1-22.3-3.19Q322.05,602.58,316,598l7.11-13.47a58.14,58.14,0,0,0,14.92,6.91,59.35,59.35,0,0,0,18.13,2.84q11.9,0,17.15-3.37a10.58,10.58,0,0,0,5.24-9.39,8.26,8.26,0,0,0-3.2-6.91,21.81,21.81,0,0,0-8.44-3.73q-5.25-1.23-11.64-2.21t-12.79-2.48a50.31,50.31,0,0,1-11.73-4.26,22.05,22.05,0,0,1-8.53-7.62q-3.19-4.87-3.2-13a24.08,24.08,0,0,1,4.8-14.89,30.49,30.49,0,0,1,13.59-9.84q8.81-3.45,20.88-3.45a82.83,82.83,0,0,1,18.75,2.21,46.74,46.74,0,0,1,15.55,6.3l-7.29,13.46A40.3,40.3,0,0,0,372,529.21a61.24,61.24,0,0,0-13.86-1.6q-11.19,0-16.7,3.63t-5.51,9.31a8.78,8.78,0,0,0,3.29,7.35,23.56,23.56,0,0,0,8.53,4,102.08,102.08,0,0,0,11.64,2.39q6.39,1,12.79,2.48a52.4,52.4,0,0,1,11.64,4.17,22.55,22.55,0,0,1,8.53,7.44q3.29,4.78,3.29,12.76a22.77,22.77,0,0,1-5,14.71q-5,6.21-14,9.66T354.93,609Z"></path><path fill="#3F3E20" d="M814.38,609A44.47,44.47,0,0,1,796,605.41a28.17,28.17,0,0,1-12.17-9.83,24.87,24.87,0,0,1-4.26-14.27,26.75,26.75,0,0,1,3.64-13.82q3.64-6.21,11.9-9.93t22.3-3.72h29.86v12.23H818.12q-12.79,0-17.24,4.25a13.73,13.73,0,0,0-4.44,10.28A13.19,13.19,0,0,0,802,591.68q5.5,4.17,15.28,4.16A32.36,32.36,0,0,0,834,591.59a24.19,24.19,0,0,0,10.39-12.41l3.38,11.7a26.4,26.4,0,0,1-11.91,13.2Q827.36,609,814.38,609Zm30.92-1.07V588.05l-.89-3.73V550.47q0-10.8-6.3-16.74t-18.93-5.94a50,50,0,0,0-16.35,2.75,42.11,42.11,0,0,0-13.5,7.35l-7.11-12.76a51.57,51.57,0,0,1,17.5-9,73.29,73.29,0,0,1,21.42-3.1q19.36,0,29.85,9.39t10.48,28.71v56.71Z"></path><path fill="#3F3E20" d="M865,566.2c-2.48,0-4.66-.1-6.39-.18l-2-.07H823.5V553.87h33.3c.76,0,1.5,0,2.35.08,7.13.31,23.86,1.06,31.12-8.81l9.73,7.17C891,564.48,875.44,566.19,865,566.2Z"></path><path fill="#3F3E20" d="M593.49,582.73a33.21,33.21,0,0,1-12,8.5,39.12,39.12,0,0,1-15.19,2.84A38.24,38.24,0,0,1,548.35,590a29.77,29.77,0,0,1-12.17-11.43,30.5,30.5,0,0,1-3.8-10.36h29.16q14,0,22.31-3.73c5.5-2.47,9.47-5.79,11.9-9.92a26.77,26.77,0,0,0,3.64-13.82,24.85,24.85,0,0,0-4.26-14.27A28.17,28.17,0,0,0,583,516.63a44.47,44.47,0,0,0-18.39-3.55c-.43,0-.84,0-1.26,0s-.61,0-.92,0a48.28,48.28,0,0,0-24.26,6.11,44.28,44.28,0,0,0-16.88,16.93,49.5,49.5,0,0,0-6.13,24.81,48.33,48.33,0,0,0,6.31,24.81,44.76,44.76,0,0,0,17.77,17q11.46,6.19,26.57,6.2a55.49,55.49,0,0,0,21.23-3.9,41.21,41.21,0,0,0,15.9-11.34Zm-11-41.29c0,9.34-6.89,14.53-21.68,14.53H532a32.75,32.75,0,0,1,3.75-13.38,28,28,0,0,1,10.84-11.17,30.92,30.92,0,0,1,15.16-3.95C574.73,527.25,582.51,533.53,582.51,541.44Z"></path><path fill="#3F3E20" d="M489.9,576.59l-9.73-7.17c11.09-15,32.32-14.11,41.39-13.71l2,.07-.29,12.08c-.62,0-1.36-.05-2.21-.08C513.89,567.46,497.16,566.72,489.9,576.59Z"></path></svg>